# xmcd
#
# Track frame offsets: 
#        150
#        15035
#        38279
#        61870
#        83458
#        104255
#        119288
#        142258
#        157927
#        181621
#        202761
#        228707
#
# Disc length: 3854 seconds
#
# Revision: 0
# Processed by: cddbd v1.5.2PL0 Copyright (c) Steve Scherf et al.
# Submitted via: ExactAudioCopyFreeDBPlugin 1.0
#
DISCID=7e0f0c0c
DTITLE=Sandi Patty - Rarities
DYEAR=2012
DGENRE=Gospel
TTITLE0=Exalt The Name
TTITLE1=Born Again
TTITLE2=Hand On My Shoulder
TTITLE3=God Of All Of Me
TTITLE4=Summertime
TTITLE5=A Mother's Prayer
TTITLE6=Peace Be Still
TTITLE7=Forever Friends
TTITLE8=Breathe On Me
TTITLE9=En Las Alas Del Amor
TTITLE10=The Star-Spangled Banner
TTITLE11=Jesus Loves Me (Medley)
EXTD=
EXTT0=
EXTT1=
EXTT2=
EXTT3=
EXTT4=
EXTT5=
EXTT6=
EXTT7=
EXTT8=
EXTT9=
EXTT10=
EXTT11=
PLAYORDER=
